<svg xmlns="http://www.w3.org/2000/svg" version="1.1" xmlns:xlink="http://www.w3.org/1999/xlink" xmlns:svgjs="http://svgjs.com/svgjs" width="512" height="512" x="0" y="0" viewBox="0 0 512 512" style="enable-background:new 0 0 512 512" xml:space="preserve" class=""><g><path d="M512 300c0-62.406-53.875-113.832-122.453-119.477.293-3.82.453-7.66.453-11.523 0-45.59-20.586-88.309-57.969-120.293C295.316 17.297 246.652 0 195 0S94.684 17.297 57.969 48.707C20.586 80.691 0 123.41 0 169c0 37.395 14.363 73.738 40.625 103.223l-25.7 100.511 100.993-49.375C141.051 333.08 167.621 338 195 338c17.758 0 35.164-2.043 51.852-6.004C262.742 383.18 315.71 420 377 420c18.125 0 35.734-3.191 52.453-9.504l75.008 37.508-19.11-76.438C502.595 350.946 512 325.828 512 300zm-390.809-6.867-6.296-2.668-54.82 26.805 13.745-53.766-5.93-6.031C43.458 232.598 30 201.18 30 169c0-76.645 74.02-139 165-139s165 62.355 165 139-74.02 139-165 139c-25.684 0-50.516-5.004-73.809-14.867zM459.54 392l-28.98-14.488-6.418 2.777C409.27 386.734 393.406 390 377 390c-48.133 0-89.547-28.059-101.52-66.969 20.75-8.14 39.883-19.48 56.551-33.738 25.828-22.098 43.633-49.32 52.176-79.074C438.754 213.402 482 252.449 482 300c0 20.742-8.504 41.02-23.945 57.098l-5.746 5.98zm0 0" fill="#f4f7f9" data-original="#000000" class=""></path><path d="M240 150h30v30h-30zM180 150h30v30h-30zM120 150h30v30h-30zm0 0" fill="#f4f7f9" data-original="#000000" class=""></path></g></svg>