<svg xmlns="http://www.w3.org/2000/svg" version="1.1" xmlns:xlink="http://www.w3.org/1999/xlink" xmlns:svgjs="http://svgjs.com/svgjs" width="512" height="512" x="0" y="0" viewBox="0 0 64 64" style="enable-background:new 0 0 512 512" xml:space="preserve" class=""><g><path fill="#ffcbbe" d="M19 30h-2.5a3.5 3.5 0 0 1-3.5-3.5 3.5 3.5 0 0 1 3.5-3.5H19zM45 30h2.5a3.5 3.5 0 0 0 3.5-3.5 3.5 3.5 0 0 0-3.5-3.5H45z" data-original="#ffcbbe"></path><path fill="#365e7d" d="M50 61H14l.43-8.6A12 12 0 0 1 26.415 41h11.17A12 12 0 0 1 49.57 52.4z" data-original="#365e7d"></path><path fill="#ececec" d="M40.88 41.46a9 9 0 0 1-17.76 0 11.939 11.939 0 0 1 3.29-.46h11.18a11.939 11.939 0 0 1 3.29.46z" data-original="#ececec"></path><circle cx="32" cy="40" r="6" fill="#ffcbbe" data-original="#ffcbbe"></circle><path fill="#ffddce" d="M32 42a14 14 0 0 1-14-14V15l6-3h16l6 3v13a14 14 0 0 1-14 14z" data-original="#ffddce" class=""></path><path fill="#5bcbfa" d="M47 18v1H17v-1a15 15 0 0 1 30 0z" data-original="#5bcbfa"></path><path fill="#3780ea" d="M48 16.563v2.953a2 2 0 0 1-2.384 1.963A73.068 73.068 0 0 0 32 20a73.068 73.068 0 0 0-13.616 1.479A2 2 0 0 1 16 19.516v-2.995a2 2 0 0 1 1.528-1.944A61.594 61.594 0 0 1 32 13a67.111 67.111 0 0 1 14.455 1.615A1.993 1.993 0 0 1 48 16.563z" data-original="#3780ea" class=""></path><g fill="#6cb1e8"><path d="M28 13.11v7.041A56.02 56.02 0 0 1 32 20v-7c-1.417 0-2.749.042-4 .11zM20 14.047v7.128a83.553 83.553 0 0 1 4-.616v-7.111c-1.544.178-2.88.39-4 .599zM36 13.13v7.021c1.4.1 2.738.245 4 .408V13.5a69.568 69.568 0 0 0-4-.37zM46.455 14.615a56.744 56.744 0 0 0-2.455-.5v7.063c.587.106 1.141.209 1.616.3A2 2 0 0 0 48 19.516v-2.953a1.993 1.993 0 0 0-1.545-1.948z" fill="#6cb1e8" data-original="#6cb1e8" class=""></path></g><path d="M40.5 40.34A15 15 0 0 0 46.7 31h.8a4.507 4.507 0 0 0 4.5-4.5 4.511 4.511 0 0 0-4.37-4.49 2.463 2.463 0 0 0 .27-.17 2.985 2.985 0 0 0 1.1-2.32v-2.96a2.95 2.95 0 0 0-1.53-2.6 15.987 15.987 0 0 0-30.93-.05A2.987 2.987 0 0 0 15 16.52v3a2.985 2.985 0 0 0 1.1 2.32 1.452 1.452 0 0 0 .26.17A4.511 4.511 0 0 0 12 26.5a4.507 4.507 0 0 0 4.5 4.5h.8a15.024 15.024 0 0 0 6.19 9.34 13.053 13.053 0 0 0-10.06 12.01l-.43 8.6a1.025 1.025 0 0 0 .28.74.975.975 0 0 0 .72.31h36a.975.975 0 0 0 .72-.31 1.025 1.025 0 0 0 .28-.74l-.43-8.6A13.059 13.059 0 0 0 40.5 40.34zm7-16.34a2.509 2.509 0 0 1 2.5 2.5 2.5 2.5 0 0 1-2.5 2.5h-.55c.02-.33.05-.66.05-1v-4zm-.5-7.44v2.96a1.007 1.007 0 0 1-1.19.98c-.25-.05-.52-.1-.81-.16v-5.02l1.23.27a.987.987 0 0 1 .77.97zM32 4a14.05 14.05 0 0 1 13.19 9.32A68.625 68.625 0 0 0 32 12a65.148 65.148 0 0 0-13.17 1.26A13.924 13.924 0 0 1 32 4zm11 10.95v5.04c-.62-.1-1.29-.21-2-.31v-5.04c.71.1 1.38.2 2 .31zm-4-.56v5.04c-.65-.07-1.32-.14-2-.2V14.2c.69.06 1.36.12 2 .19zm-4-.31v5.01c-.66-.04-1.33-.07-2-.08v-5c.68.01 1.35.03 2 .07zm-4-.07v5c-.67.01-1.34.04-2 .08v-5.03c.65-.02 1.31-.04 2-.05zm-4 .16v5.06c-.68.06-1.35.13-2 .2v-5.08c.64-.07 1.3-.13 2-.18zm-4 .41v5.1c-.71.1-1.38.21-2 .31v-5.11c.61-.1 1.28-.2 2-.3zM16.5 29a2.5 2.5 0 0 1-2.5-2.5 2.509 2.509 0 0 1 2.5-2.5h.5v4c0 .34.03.67.05 1zm.87-8.71a.971.971 0 0 1-.37-.77v-3a1 1 0 0 1 .77-.97c.35-.09.76-.18 1.23-.28v5.07c-.29.06-.56.11-.81.16a.967.967 0 0 1-.82-.21zM19 28v-5.62A71.852 71.852 0 0 1 32 21a71.852 71.852 0 0 1 13 1.38V28a13 13 0 0 1-26 0zm13 19a7 7 0 0 0 6.69-4.93 8.458 8.458 0 0 1 .99.15 7.99 7.99 0 0 1-15.36-.01c.33-.06.66-.11.99-.14A7 7 0 0 0 32 47zm-4.42-4.67a14.914 14.914 0 0 0 8.84 0 4.994 4.994 0 0 1-8.84 0zM15.05 60l.38-7.55a11.067 11.067 0 0 1 6.97-9.68 9.99 9.99 0 0 0 19.2.01 11.025 11.025 0 0 1 6.97 9.67l.38 7.55z" fill="#000000" data-original="#000000" class=""></path><path d="M26 27a1 1 0 0 0 1-1v-2a1 1 0 0 0-2 0v2a1 1 0 0 0 1 1zM38 27a1 1 0 0 0 1-1v-2a1 1 0 0 0-2 0v2a1 1 0 0 0 1 1zM39 32h-2c0 1.626-2.29 3-5 3s-5-1.374-5-3h-2c0 2.8 3.075 5 7 5s7-2.2 7-5z" fill="#000000" data-original="#000000" class=""></path></g></svg>