<svg xmlns="http://www.w3.org/2000/svg" version="1.1" xmlns:xlink="http://www.w3.org/1999/xlink" xmlns:svgjs="http://svgjs.com/svgjs" width="512" height="512" x="0" y="0" viewBox="0 0 64 64" style="enable-background:new 0 0 512 512" xml:space="preserve" class=""><g><g fill="#000"><path d="M20 2C10.059 2 2 10.059 2 20v4a2 2 0 1 0 4 0v-4c0-7.732 6.268-14 14-14h16a2 2 0 1 0 0-4zM6 34a2 2 0 1 0-4 0v10c0 9.941 8.059 18 18 18h24c9.941 0 18-8.059 18-18V30a2 2 0 1 0-4 0v14c0 7.732-6.268 14-14 14H20c-7.732 0-14-6.268-14-14z" fill="#000000" data-original="#000000" class=""></path><path fill-rule="evenodd" d="M59.21 4.79a9.525 9.525 0 0 0-13.47 0L26.586 23.944A2 2 0 0 0 26 25.358V36a2 2 0 0 0 2 2h10.641a2 2 0 0 0 1.415-.586L59.21 18.26a9.525 9.525 0 0 0 0-13.47zM30 26.187l13.962-13.962 7.813 7.813L37.813 34H30zm16.79-16.79 7.814 7.812 1.778-1.778a5.525 5.525 0 0 0-7.813-7.813z" clip-rule="evenodd" fill="#000000" data-original="#000000" class=""></path></g></g></svg>